<svg width="660" height="100" viewBox="0 0 660 100" fill="none" xmlns="http://www.w3.org/2000/svg">
<path d="M74.9062 44.5595H74.8985V44.5518L74.9062 44.5595Z" fill="#1D1D1B"/>
<path d="M166.663 99.5771H141.479L83.9841 42.1642L84.0519 42.1222L73.1482 31.2341L85.6853 18.715L90.9547 13.4531L90.9559 13.4519L104.427 0H129.611L98.2773 31.289L152.931 85.8649L166.663 99.5771Z" fill="white"/>
<path d="M85.7344 55.8765L92.705 62.8371V99.5771H49.8606C47.4802 99.5771 45.1383 99.4102 42.8456 99.0868C18.6612 95.6707 0 74.867 0 49.7891C0 24.7113 18.6612 3.90645 42.8456 0.490349C45.1383 0.166952 47.4802 0 49.8606 0H92.7062L74.8985 17.7822H49.8606C32.1956 17.7822 17.8077 32.1494 17.8077 49.7891C17.8077 67.4289 32.1956 81.7961 49.8606 81.7961H74.8985V62.7344H42.8456V44.9522H74.9043L85.8022 55.8345L85.7344 55.8765Z" fill="#D3A84C"/>
<path d="M190.005 49.0466C190.005 57.3089 196.744 64.0384 205.019 64.0384H220.033V55.1094H205.019V46.7804H228.374V72.3673H205.019C192.141 72.3673 181.665 61.9065 181.665 49.0466C181.665 36.1866 192.141 25.7258 205.019 25.7258H228.374V34.0547H205.019C196.745 34.0547 190.005 40.7842 190.005 49.0466Z" fill="white"/>
<path d="M256.732 25.7247C243.852 25.7247 233.378 36.1867 233.378 49.0455C233.378 61.9043 243.852 72.3663 256.732 72.3663C269.612 72.3663 280.086 61.9067 280.086 49.0455C280.086 36.1844 269.609 25.7247 256.732 25.7247ZM256.732 64.0374C248.457 64.0374 241.719 57.3079 241.719 49.0455C241.719 40.7831 248.458 34.0537 256.732 34.0537C265.006 34.0537 271.745 40.7831 271.745 49.0455C271.745 57.3079 265.005 64.0374 256.732 64.0374Z" fill="white"/>
<path d="M323.592 64.1051V72.4341H299.904C297.568 72.4341 295.366 71.9005 293.364 70.9011C290.429 69.4359 288.026 67.0367 286.625 64.1051C285.625 62.1064 285.09 59.9068 285.09 57.5753V25.7913H293.431V58.3739C293.832 61.3055 296.167 63.6381 299.103 64.0374L323.592 64.104V64.1051Z" fill="white"/>
<path d="M353.55 25.7913L330.264 25.726V72.3687H353.618C360.023 72.3687 365.829 69.7698 370.032 65.5061C370.5 65.0403 370.966 64.5733 371.366 64.1063C374.836 60.0422 376.904 54.7792 376.904 49.0479C376.904 36.1891 366.43 25.7925 353.55 25.7925V25.7913ZM353.55 64.104H338.537V34.1203H353.55C361.826 34.1203 368.563 40.8509 368.563 49.1121C368.563 57.3733 361.824 64.104 353.55 64.104Z" fill="white"/>
<path d="M391.984 38.3186V42.65H422.012V50.9789H391.984V59.7749C391.984 62.1075 393.919 64.0398 396.255 64.0398H430.353V72.3687H396.255C389.315 72.3687 383.711 66.7052 383.711 59.7749V38.3198C383.711 31.3895 389.316 25.726 396.255 25.726H430.353V34.0549H396.255C393.919 34.0549 391.984 35.9871 391.984 38.3198V38.3186Z" fill="white"/>
<path d="M483.734 25.7913V72.434L475.393 66.0373L445.365 42.9161V72.434H437.024V25.9244L445.365 32.3211L475.393 55.4434V25.7247L483.734 25.7913Z" fill="white"/>
<path d="M518.108 44.4759L538.354 72.434H528.065L511.894 50.1476L500.065 60.891V72.434H491.713V25.7247H500.065V49.6129L506.948 43.3411L513.163 37.6694L526.194 25.7247H538.556L518.108 44.4759Z" fill="white"/>
<path d="M553.589 25.7247H545.236V72.434H553.589V25.7247Z" fill="white"/>
<path d="M567.956 49.0794C567.956 57.3534 574.705 64.0934 582.991 64.0934H606.379V72.434H582.991C570.094 72.434 559.603 61.9581 559.603 49.0794C559.603 36.2007 570.094 25.7247 582.991 25.7247H606.379V34.0653H582.991C574.705 34.0653 567.956 40.8053 567.956 49.0794Z" fill="white"/>
<path d="M639.388 44.4759L659.635 72.434H649.344L633.173 50.1476L621.346 60.891V72.434H612.993V25.7247H621.346V49.6129L628.229 43.3411L634.443 37.6694L647.474 25.7247H659.835L639.388 44.4759Z" fill="white"/>
</svg>
